<svg xmlns="http://www.w3.org/2000/svg" viewBox="0 0 1200 627" role="img" aria-label="LinkedIn stat card template">
  <rect width="1200" height="627" fill="#FDFBF7"/>

  <!-- Header lockup, small, top-left -->
  <g transform="translate(72,60)">
    <g transform="scale(0.11)">
      <g fill="#F4B47E">
        <path d="M126 360 C 96 286, 116 218, 196 224 C 220 290, 220 360, 196 412 C 162 414, 132 396, 126 360 Z"/>
        <path d="M386 360 C 416 286, 396 218, 316 224 C 292 290, 292 360, 316 412 C 350 414, 380 396, 386 360 Z"/>
      </g>
      <path fill="#F4A261" d="M196 240 C 220 312, 220 372, 256 410 C 292 372, 292 312, 316 240 C 296 218, 256 210, 256 210 Z"/>
      <g fill="#F9C7D2">
        <path d="M178 200 C 142 168, 144 124, 188 100 C 218 132, 230 168, 218 208 C 202 214, 188 210, 178 200 Z"/>
        <path d="M334 200 C 370 168, 368 124, 324 100 C 294 132, 282 168, 294 208 C 310 214, 324 210, 334 200 Z"/>
      </g>
      <path fill="#F4B0BD" d="M218 200 C 222 142, 240 88, 256 60 C 272 88, 290 142, 294 200 Z"/>
    </g>
    <text x="72" y="40" font-family="'Playfair Display', Georgia, serif" font-style="italic" font-weight="500" font-size="36" fill="#2C3E50">Our Pregnancy</text>
  </g>

  <!-- Big stat -->
  <text x="600" y="340" text-anchor="middle"
        font-family="'Playfair Display', Georgia, serif" font-weight="500" font-size="180"
        fill="#2C3E50">27M</text>

  <!-- Label -->
  <text x="600" y="410" text-anchor="middle"
        font-family="'Nunito', sans-serif" font-weight="600" font-size="34"
        fill="#2C3E50">pregnancies in India every year</text>
  <text x="600" y="455" text-anchor="middle"
        font-family="'Nunito', sans-serif" font-weight="400" font-size="22"
        fill="#6B7A87">Source: Govt of India MOHFW, 2024</text>

  <!-- URL footer -->
  <text x="1128" y="580" text-anchor="end"
        font-family="'Nunito', sans-serif" font-weight="600" font-size="20"
        fill="#6B7A87">ourpregnancy.in</text>
</svg>
